<svg width="500" height="200" viewBox="0 0 500 200" fill="none" xmlns="http://www.w3.org/2000/svg">
<path fill-rule="evenodd" clip-rule="evenodd" d="M89 43C117.719 43 141 66.2812 141 95C141 99.6367 140.393 104.132 139.255 108.41L109.951 60.0236H109.917C107.284 56.0164 102.749 53.3706 97.5959 53.3706C92.4428 53.3706 87.9077 56.0164 85.275 60.0236H85.2401L84.8749 60.6681C84.8043 60.7886 84.7354 60.9103 84.6681 61.033L52.5497 117.712C51.2783 119.89 50.5499 122.424 50.5499 125.128C50.5499 127.436 51.0808 129.62 52.0272 131.565C42.7366 122.172 37 109.256 37 95C37 66.2812 60.2812 43 89 43ZM62.1109 139.517C63.1321 139.741 64.193 139.859 65.2815 139.859C73.4175 139.859 80.013 133.264 80.013 125.128C80.013 122.518 79.3346 120.067 78.1444 117.941L78.1519 117.938L70.9735 105.515C67.1058 98.8163 69.4011 90.2501 76.1003 86.3823C82.7994 82.5145 91.3656 84.8098 95.2334 91.509L120.555 134.424L120.565 134.42C120.829 134.848 121.114 135.262 121.418 135.66C112.528 142.757 101.26 147 89 147C79.1592 147 69.9569 144.266 62.1109 139.517Z" fill="#0040FF"/>
<path fill-rule="evenodd" clip-rule="evenodd" d="M294.67 74.0002H294.68H303.99H304.003L304.953 76.6114V76.6475L323.16 126.711H314.958L299.33 83.7401L290.715 107.427H303.146L305.69 114.498H288.144L283.702 126.711H275.5L294.67 74.0002ZM189.063 126.711H197.326L217.03 74.0005H208.413L193.229 116.453L178.116 74.0005H169.5L189.063 126.711ZM268.989 98.6112C268.425 90.104 261.521 87.5027 256.238 87.5027C249.263 87.5027 243.345 91.8617 243.345 99.1033C243.416 104.868 247.643 107.4 252.997 109.017C259.831 111.266 262.719 112.532 262.789 116.329C262.789 119.563 260.042 122.023 256.519 122.023C253.772 122.023 250.038 120.477 249.756 115.836H242.5C242.852 124.554 250.39 127.999 256.449 127.999C264.058 127.999 270.257 122.937 270.116 115.485C269.907 107.343 263.625 105.607 257.827 104.004L257.647 103.954C253.561 102.83 250.813 101.423 250.672 98.4003C250.602 95.8692 252.574 93.4788 256.167 93.4788C259.901 93.4085 261.733 95.6583 261.733 98.6112H268.989ZM365.574 113.214C363.116 121.758 355.351 127.999 346.153 127.999C334.979 127.999 325.921 118.789 325.921 107.429C325.921 96.0685 334.979 86.8591 346.153 86.8591C355.351 86.8591 363.116 93.0997 365.574 101.644H358.15C356.02 97.0826 351.447 93.9292 346.15 93.9292C338.817 93.9292 332.873 99.9729 332.873 107.428C332.873 114.883 338.817 120.927 346.15 120.927C351.447 120.927 356.019 117.774 358.15 113.214H365.574ZM436.964 107.43C436.964 118.791 427.906 128 416.732 128C405.558 128 396.5 118.791 396.5 107.43C396.5 96.07 405.558 86.8606 416.732 86.8606C427.906 86.8606 436.964 96.07 436.964 107.43ZM430.007 107.43C430.007 114.885 424.062 120.929 416.73 120.929C409.397 120.929 403.452 114.885 403.452 107.43C403.452 99.9743 409.397 93.9307 416.73 93.9307C424.062 93.9307 430.007 99.9743 430.007 107.43ZM385.068 88.1436V75.2861H377.361V88.1436H370.291V94.5716H377.361V126.711H385.068V94.5716H392.129V88.1436H385.068ZM233.089 126.711V86.8572H225.381V126.711H233.089ZM233.089 74.0012V81.7165L225.38 81.7165V74.0012L233.089 74.0012ZM461.16 86.8584C461.481 86.8584 461.8 86.8705 462.115 86.8943V94.7623C461.498 94.638 460.858 94.5728 460.204 94.5728C454.883 94.5728 450.57 98.8862 450.57 104.207V126.712H450.549V126.711H443.5V88.1431H450.565V92.7C452.784 89.1896 456.7 86.8584 461.16 86.8584Z" fill="black"/>
</svg>
